<svg width="1921" height="592" viewBox="0 0 1921 592" fill="none" xmlns="http://www.w3.org/2000/svg">
<g clip-path="url(#clip0_583_77)">
<path d="M224.187 170.087C213.461 163.524 185.146 150.117 141.624 144.454C126.426 142.363 121.953 138.491 121.953 131.938C122.554 105.704 195.572 115.539 217.333 142.363C251.611 134.319 279.035 83.6524 226.868 49.0744C201.235 32.0856 146.696 27.0129 107.346 37.7485C35.8086 56.8184 25.6833 115.539 29.5553 140.582C38.7901 196.611 92.7482 216.582 141.033 220.163C163.385 221.654 171.129 230.299 167.857 242.215C163.085 260.394 123.744 259.804 81.7125 238.933C33.1272 214.791 -0.250202 275.902 28.6649 312.261C82.3128 356.374 174.711 348.921 214.051 333.122C270.091 310.17 299.896 216.882 224.187 170.087Z" fill="#FF5757"/>
<path d="M452.178 33.867C370.215 34.1672 330.575 78.8805 311.795 120.902C297.788 151.608 295.396 195.721 304.341 234.171C313.586 275.003 335.337 306.899 373.197 326.269C412.837 346.84 454.859 350.112 497.782 339.686C550.839 327.17 585.717 294.383 601.806 242.516C613.732 203.175 610.45 164.425 596.443 126.275C587.498 102.723 553.821 33.2767 452.178 33.867ZM453.669 140.583C474.83 140.583 493.91 159.953 491.819 193.63C490.038 227.318 470.658 239.534 454.859 240.425C439.361 241.625 416.409 229.399 414.328 194.821C411.947 159.352 431.617 140.583 453.669 140.583Z" fill="#FF5757"/>
<path d="M856.324 232.38C915.935 187.667 904.309 89.6057 856.914 58.0193C797.303 17.7783 671.527 35.9578 645.594 61.291C636.059 97.3598 637.249 252.951 642.312 279.475C655.429 346.84 723.384 353.393 748.127 326.269C751.409 294.082 751.109 255.932 751.109 250.86C751.109 250.56 751.409 250.269 751.409 250.269C751.999 249.969 752.299 249.969 752.6 249.669C752.89 249.669 752.89 249.669 753.19 249.669C757.662 252.651 811.02 266.058 856.324 232.38ZM797.013 147.736C797.013 159.652 792.83 165.915 783.896 167.406C776.442 168.897 768.988 168.597 761.534 168.597C760.344 168.597 758.262 166.216 758.262 165.015C757.962 154.59 757.962 146.245 757.962 133.719C777.633 121.802 797.013 135.51 797.013 147.736Z" fill="#FF5757"/>
<path d="M1034.24 148.927C1034.24 145.345 1033.94 143.554 1034.24 142.063C1035.13 116.43 1035.73 120.312 1034.24 85.1335C1032.15 27.0132 949.885 27.6135 926.043 57.4191C920.38 113.458 923.061 245.197 929.915 294.673C937.069 347.73 1010.1 348.621 1035.73 326.869C1034.24 310.171 1033.94 292.591 1035.13 286.328C1036.32 280.075 1044.67 266.358 1051.53 255.632C1065.54 283.057 1073.29 297.654 1079.54 310.171C1111.14 371.873 1182.38 340.576 1193.7 302.126C1182.38 272.321 1154.36 228.808 1132.6 188.267C1130.51 184.395 1130.51 181.714 1132.9 178.132C1151.97 147.736 1155.25 145.345 1170.75 113.158C1195.49 62.1915 1151.08 28.8042 1108.76 37.4487C1097.72 54.1374 1072.99 89.0155 1061.95 106.004C1052.72 119.411 1044.07 133.429 1034.24 148.927Z" fill="#FF5757"/>
<path d="M1365.95 33.867C1283.99 34.1672 1244.35 78.8805 1225.57 120.902C1211.56 151.608 1209.17 195.721 1218.12 234.171C1227.36 275.003 1249.11 306.899 1286.97 326.269C1326.61 346.84 1368.63 350.112 1411.56 339.686C1464.61 327.17 1499.49 294.383 1515.58 242.516C1527.51 203.175 1524.23 164.425 1510.22 126.275C1501.27 102.723 1467.6 33.2767 1365.95 33.867ZM1367.44 140.583C1388.6 140.583 1407.68 159.953 1405.59 193.63C1403.81 227.318 1384.43 239.534 1368.63 240.425C1353.14 241.625 1330.18 229.399 1328.1 194.821C1325.72 159.352 1345.39 140.583 1367.44 140.583Z" fill="#FF5757"/>
<path d="M1725.38 198.103C1725.08 198.103 1724.49 198.103 1723.89 198.103C1723.3 196.312 1718.53 174.26 1717.94 172.469C1711.38 144.755 1703.63 110.477 1697.97 89.9063C1680.97 27.914 1605.56 33.2768 1582.91 54.738C1577.25 87.5251 1570.99 120.312 1565.62 153.399C1559.96 188.568 1551.02 225.527 1546.25 260.695C1534.04 345.649 1592.46 359.056 1641.03 332.833C1644.01 286.329 1646.4 250.56 1649.68 204.956C1653.26 215.091 1666.37 274.112 1673.53 302.727C1685.74 351.603 1748.34 342.668 1768.01 330.442C1776.65 295.874 1784.71 260.995 1792.75 226.417C1794.24 220.164 1795.43 214.201 1796.62 207.938C1797.22 207.938 1798.11 207.938 1798.71 208.238C1800.5 253.842 1798.41 266.358 1802.28 301.827C1807.66 349.221 1871.14 361.738 1903.63 319.716C1899.76 286.028 1896.17 256.823 1892.3 223.146C1888.13 187.967 1881.28 129.547 1878.29 106.895C1870.54 48.1746 1808.55 25.5228 1760.56 56.5289C1758.77 62.482 1756.39 68.145 1754.9 73.8079C1745.66 113.459 1736.42 152.799 1727.18 192.44C1726.88 194.231 1725.99 196.022 1725.38 198.103Z" fill="#FF5757"/>
<path d="M920.775 443.232C919.377 460.842 915.324 504.051 911.905 523.564C911.528 523.564 911.142 523.564 910.765 523.683C903.67 497.589 897.843 472.754 891.381 452.231C885.425 432.975 861.859 438.297 851.978 441.716C850.204 448.177 842.475 475.797 838.174 493.278C835.765 503.416 833.357 513.168 831.078 522.93C830.563 522.93 830.186 522.93 829.809 522.93C828.164 508.609 828.917 486.183 825.756 457.166C822.714 428.793 783.688 436.008 779 451.844C782.677 483.527 785.461 528.628 792.052 545.099C805.985 579.685 843.872 567.396 861.106 561.946C863.633 542.819 866.041 522.672 867.944 507.47C868.449 507.47 868.826 507.47 869.46 507.47C871.115 523.683 871.62 531.284 874.663 542.69C885.177 582.222 925.086 568.665 942.319 563.214C949.286 543.454 962.457 488.333 965.123 466.798C968.542 438.416 941.556 433.094 920.775 443.232Z" fill="#004AAD"/>
<path d="M1021.37 483.398C1021.37 482.13 1022.12 470.089 1020.98 458.94C1019.09 439.685 990.575 432.718 973.728 446.652C972.202 469.712 973.728 531.413 974.739 545.357C976.889 576.524 1014.78 569.547 1021.74 563.215C1021.74 550.044 1021.74 536.735 1021.74 524.317C1030.11 524.317 1037.33 524.317 1045.44 524.317C1045.44 529.768 1045.69 544.336 1046.58 550.926C1049.49 573.987 1087.25 569.428 1092.95 563.086C1093.2 560.172 1093.32 554.097 1093.32 549.658C1093.45 517.479 1093.45 477.066 1093.45 464.391C1093.45 440.19 1062.54 432.341 1046.95 444.759C1045.81 451.597 1046.07 469.207 1045.69 483.398C1037.58 483.398 1029.73 483.398 1021.37 483.398Z" fill="#004AAD"/>
<path d="M1169.34 437.029C1134.5 437.148 1117.65 456.156 1109.66 474.024C1103.71 487.075 1102.69 505.825 1106.5 522.167C1110.42 539.52 1119.67 553.077 1135.76 561.312C1152.61 570.063 1170.48 571.45 1188.72 567.02C1211.28 561.699 1226.1 547.755 1232.94 525.715C1238.01 508.987 1236.62 492.516 1230.66 476.303C1226.86 466.294 1212.54 436.771 1169.34 437.029ZM1169.97 482.388C1178.97 482.388 1187.08 490.623 1186.19 504.933C1185.43 519.254 1177.2 524.446 1170.48 524.823C1163.89 525.338 1154.14 520.136 1153.25 505.439C1152.24 490.365 1160.6 482.388 1169.97 482.388Z" fill="#004AAD"/>
<path d="M1325.67 566.386C1343.41 565.246 1357.98 543.582 1347.72 524.446C1329.86 522.295 1306.79 522.038 1295.27 522.93C1295.77 507.093 1295.77 480.732 1294.26 465.788C1290.84 434.749 1261.06 434.997 1249.4 445.512C1244.46 476.808 1246.23 521.027 1248.9 538.895C1252.58 563.72 1273.35 566.386 1286.4 566.386C1286.4 566.386 1307.82 567.525 1325.67 566.386Z" fill="#004AAD"/>
<path d="M1362.79 536.992C1363.8 554.216 1369.01 562.709 1380.91 565.751C1390.03 567.902 1423.11 567.654 1433.62 566.257C1457.69 563.085 1460.98 541.174 1451.36 527.617C1437.8 527.617 1424.24 527.617 1410.69 527.617C1409.67 527.617 1408.66 527.617 1407.77 527.617C1407.77 524.951 1407.77 522.672 1407.77 519.887C1419.56 519.887 1423.35 520.135 1429.81 519.887C1448.45 518.995 1454.27 504.298 1446.67 487.451C1435.9 484.032 1414.99 485.419 1407.65 485.419C1407.65 482.892 1407.65 480.861 1407.65 478.839C1423.99 478.839 1426.9 478.839 1433.75 478.839C1464.28 478.839 1460.98 447.414 1456.29 440.695C1433.75 438.921 1385.98 438.416 1364.82 440.576C1362.29 461.982 1361.78 519.629 1362.79 536.992Z" fill="#004AAD"/>
<path d="M1554.99 494.923C1550.43 492.139 1540.67 489.225 1522.18 486.817C1515.72 485.935 1513.81 484.28 1513.81 481.495C1514.06 470.346 1542.82 471.743 1552.08 483.14C1566.64 479.721 1578.3 458.186 1556.13 443.49C1545.23 436.265 1522.05 434.115 1505.32 438.673C1474.92 446.78 1470.61 471.743 1472.25 482.387C1476.18 506.201 1498.35 517.855 1518.88 519.382C1528.38 520.016 1528.51 521.532 1527.11 526.596C1525.09 534.326 1512.29 533.058 1494.43 524.188C1473.78 513.931 1459.59 539.905 1471.87 555.365C1494.68 574.115 1533.96 570.944 1550.68 564.225C1574.5 554.473 1587.17 514.813 1554.99 494.923Z" fill="#004AAD"/>
<path d="M1584.88 528.37C1579.43 557.139 1593.75 577.029 1624.92 565.622C1626.7 559.032 1628.72 552.7 1630.88 547.378C1638.98 547.635 1647.85 547.13 1655.83 547.507C1665.84 582.222 1704.49 566.514 1706.26 552.7C1701.45 526.091 1687.89 481.119 1681.04 464.39C1666.6 429.17 1628.85 437.147 1611.49 442.855C1603.38 458.692 1589.82 502.911 1584.88 528.37ZM1635.44 510.76C1637.84 500.374 1640.25 490.494 1642.53 480.484C1642.91 480.484 1643.29 480.484 1643.67 480.355C1646.08 490.494 1648.62 500.503 1651.01 510.76C1645.82 510.76 1640.89 510.76 1635.44 510.76Z" fill="#004AAD"/>
<path d="M1792.15 566.386C1809.89 565.246 1824.46 543.582 1814.2 524.446C1796.33 522.295 1773.27 522.038 1761.75 522.93C1762.25 507.093 1762.25 480.732 1760.73 465.788C1757.32 434.749 1727.54 434.997 1715.88 445.512C1710.94 476.808 1712.71 521.027 1715.38 538.895C1719.05 563.72 1739.82 566.386 1752.88 566.386C1752.88 566.386 1774.29 567.525 1792.15 566.386Z" fill="#004AAD"/>
<path d="M1829.27 536.992C1830.28 554.216 1835.48 562.709 1847.38 565.751C1856.51 567.902 1889.58 567.654 1900.1 566.257C1924.17 563.085 1927.46 541.174 1917.84 527.617C1904.28 527.617 1890.72 527.617 1877.16 527.617C1876.14 527.617 1875.13 527.617 1874.25 527.617C1874.25 524.951 1874.25 522.672 1874.25 519.887C1886.03 519.887 1889.83 520.135 1896.29 519.887C1914.92 518.995 1920.75 504.298 1913.15 487.451C1902.38 484.032 1881.47 485.419 1874.12 485.419C1874.12 482.892 1874.12 480.861 1874.12 478.839C1890.46 478.839 1893.38 478.839 1900.22 478.839C1930.76 478.839 1927.46 447.414 1922.77 440.695C1900.22 438.921 1852.46 438.416 1831.3 440.576C1828.76 461.982 1828.26 519.629 1829.27 536.992Z" fill="#004AAD"/>
<path d="M57 432.632C48.5125 432.632 41.632 439.512 41.632 448C41.632 456.488 48.5125 463.368 57 463.368V432.632ZM57 463.368H748.83V432.632H57V463.368Z" fill="#004AAD"/>
<path d="M36 486.632C27.5125 486.632 20.632 493.512 20.632 502C20.632 510.488 27.5125 517.368 36 517.368V486.632ZM36 517.368H727.83V486.632H36V517.368Z" fill="#004AAD"/>
<path d="M18 541.632C9.51249 541.632 2.632 548.512 2.632 557C2.632 565.488 9.51249 572.368 18 572.368V541.632ZM18 572.368H709.83V541.632H18V572.368Z" fill="#004AAD"/>
</g>
<defs>
<clipPath id="clip0_583_77">
<rect width="1921" height="591.668" fill="white"/>
</clipPath>
</defs>
</svg>
